<svg width="32" height="34" viewBox="0 0 32 34" fill="none" xmlns="http://www.w3.org/2000/svg">
<g id="rotation">
<g id="Vector">
<path d="M2.63943 7.713C4.89103 4.31002 8.69004 1.61074 12.4312 0.756518C14.9322 0.185398 19.4802 0.396706 21.7428 1.18956C23.4289 1.78036 27.0886 4.01997 27.0886 4.46083C27.0886 4.58154 27.2187 4.68025 27.3776 4.68025C27.5365 4.68025 27.6666 4.09002 27.6666 3.36867C27.6666 1.95028 28.1916 1.43069 28.9707 2.07823C29.563 2.57061 29.5836 7.06228 28.9955 7.55119C28.7363 7.76655 27.6703 7.85744 26.0336 7.8036C23.5211 7.7211 23.4766 7.70692 23.4766 6.99599C23.4766 6.34063 23.6121 6.25872 24.9133 6.12759L26.3503 5.98285L25.1728 5.05164C22.597 3.01436 19.697 2.06144 16.1661 2.09183C10.4758 2.14075 5.77843 5.14137 3.1951 10.3773C2.13316 12.5295 2.11091 12.6426 2.10224 15.9362C2.09531 18.4905 2.21494 19.5954 2.59897 20.5344C3.059 21.659 3.28179 23.2062 2.98387 23.2062C2.91741 23.2062 2.66572 23.282 2.42443 23.3746C1.80432 23.6132 0.48693 21.4225 0.346494 19.9196C-0.174219 14.3473 -0.167283 14.2118 0.777629 11.6275C1.27233 10.2742 2.11034 8.5128 2.63943 7.713Z" fill="#22242A"/>
<path d="M29.5275 11.4778C29.1293 10.4328 29.1045 10.1031 29.3978 9.74912C29.9003 9.14239 30.1806 9.19942 30.7154 10.0172C31.9805 11.9514 32.4102 17.4501 31.5546 20.7573C30.5106 24.7933 27.1461 28.8111 23.1876 30.7491C17.5731 33.4979 10.3692 32.8243 6.08416 29.1501C5.42793 28.5874 4.82139 28.1271 4.73614 28.1271C4.6509 28.1271 4.54138 28.7457 4.49312 29.5021C4.41915 30.6548 4.31166 30.8771 3.82707 30.8771C3.28757 30.8771 3.24914 30.684 3.24914 27.9824V25.0877H5.99429C8.72991 25.0877 8.73945 25.0903 8.73945 25.8114C8.73945 26.4676 8.6045 26.5487 7.29463 26.6798L5.84981 26.8245L7.15015 27.8021C12.9641 32.1721 21.0424 31.6233 26.1524 26.511C30.1173 22.5444 31.4624 16.5531 29.5275 11.4778Z" fill="#22242A"/>
<path d="M8.33259 24.1782C6.97244 23.4713 6.51587 22.7801 7.05392 22.2414C7.42235 21.872 8.38864 22.0524 9.40175 22.6793L10.4212 23.3107L11.5158 22.6793C12.8739 21.8963 13.6466 21.8856 15.0337 22.6304L16.1181 23.2128L17.2575 22.6304C18.7044 21.8911 19.3742 21.8981 20.7392 22.6663L21.837 23.2846L22.8689 22.6458C24.1077 21.8787 25.1748 21.9447 25.2965 22.796C25.3632 23.2649 25.0517 23.5709 23.897 24.171C22.0904 25.11 21.5712 25.1274 20.0983 24.298L18.9529 23.6534L17.8343 24.298C16.4565 25.0926 15.6411 25.1088 14.5187 24.364C13.4296 23.6415 13.0583 23.6415 12.1414 24.364C11.1511 25.1442 10.0921 25.0926 8.33259 24.1782Z" fill="#22242A"/>
</g>
<path id="Exclude" fill-rule="evenodd" clip-rule="evenodd" d="M12.35 8.32251C12.35 7.61911 12.4303 6.83349 12.5285 6.57702C12.682 6.17698 13.2073 6.12198 16.2128 6.19145L19.7185 6.2725L19.8052 7.93694C19.8853 9.47228 19.9451 9.60138 20.5791 9.60138C21.7338 9.60138 22.1747 10.3271 22.1747 12.2271C22.1747 13.825 22.2207 13.9434 22.8393 13.9434C23.2049 13.9434 23.66 14.0997 23.8507 14.2908C25.0037 15.4457 22.7159 21.4626 21.122 21.4675C20.2075 21.4704 20.1098 20.798 20.8634 19.6867C21.6898 18.4686 22.5674 15.9477 22.2591 15.6785C22.1331 15.5688 21.055 15.3117 19.863 15.1073C18.671 14.9027 17.5334 14.6737 17.3346 14.5979C17.0569 14.4922 16.9734 15.3407 16.9734 18.2634C16.9734 21.3914 16.8956 22.0965 16.5362 22.2346C15.4907 22.6367 15.2396 21.8334 15.2396 18.0857C15.2396 14.6178 15.2179 14.4902 14.6631 14.6668C14.3458 14.7675 13.1432 15.0115 11.9902 15.2092C10.0244 15.5462 9.8981 15.6125 9.96398 16.2756C10.0027 16.6647 10.4659 17.8376 10.9933 18.8826C12.0122 20.9005 12.0543 21.4696 11.1848 21.4696C10.4379 21.4696 9.28174 19.8552 8.59314 17.8506C7.66238 15.14 7.90136 13.9434 9.37363 13.9434C9.9923 13.9434 10.0382 13.825 10.0382 12.2271C10.0382 10.3207 10.4792 9.60138 11.6481 9.60138C12.2852 9.60138 12.35 9.48357 12.35 8.32251ZM14.0833 9.60139V8.73299V7.86458H16.106H18.1288V8.73299V9.60139H16.106H14.0833ZM12.0625 12.3754V13.1793H13.1461C14.13 12.9529 17.2294 12.933 19.431 13.1385C20.2196 13.2123 20.2979 13.1411 20.2979 12.3511V11.4827L16.1802 11.4025L12.0625 11.3221V12.3754Z" fill="#22242A"/>
</g>
</svg>
